<?xml version="1.0" standalone="no"?>
<!DOCTYPE svg PUBLIC "-//W3C//DTD SVG 20010904//EN"
 "http://www.w3.org/TR/2001/REC-SVG-20010904/DTD/svg10.dtd">
<svg version="1.0" xmlns="http://www.w3.org/2000/svg"
 width="395.000000pt" height="395.000000pt" viewBox="0 0 395.000000 395.000000"
 preserveAspectRatio="xMidYMid meet">
<metadata>
Created by potrace 1.11, written by Peter Selinger 2001-2013
</metadata>
<g transform="translate(0.000000,395.000000) scale(0.100000,-0.100000)"
fill="#000000" stroke="none">
<path d="M1726 3869 c-2 -8 -9 -42 -15 -77 -14 -89 -30 -116 -67 -120 -37 -4
-126 -72 -273 -210 -57 -53 -126 -114 -153 -135 -51 -38 -142 -70 -231 -82
-54 -7 -54 -9 -13 -95 l22 -45 -67 -60 c-37 -33 -67 -63 -68 -67 -1 -3 16 -9
37 -13 61 -10 68 -18 45 -51 -42 -59 -65 -167 -79 -364 -7 -94 -7 -95 -44
-127 -66 -57 -70 -83 -70 -439 0 -313 0 -313 25 -370 14 -32 46 -79 70 -105
l45 -48 0 -105 c0 -125 15 -203 69 -353 23 -62 38 -113 35 -113 -4 0 -1 -7 6
-15 6 -8 9 -19 5 -25 -3 -5 -2 -10 3 -10 6 0 13 -7 16 -16 5 -12 2 -15 -11
-10 -17 6 -17 5 -1 -7 10 -8 15 -17 11 -20 -3 -4 -2 -7 4 -7 14 0 35 -59 26
-73 -3 -5 -1 -7 4 -4 13 8 26 -20 16 -36 -3 -7 -2 -9 2 -5 5 5 23 -25 40 -65
43 -98 109 -200 155 -240 41 -35 209 -130 269 -152 20 -8 61 -24 91 -36 47
-18 80 -22 231 -26 213 -6 256 3 407 84 127 68 167 102 231 198 46 69 149 297
197 435 12 36 40 108 61 160 36 89 42 97 89 125 27 17 76 58 110 91 57 58 65
72 140 250 77 186 78 190 78 274 -1 101 -27 173 -81 221 -33 28 -35 33 -29 72
9 52 46 126 92 182 63 78 91 236 65 371 -8 40 -7 41 24 53 42 15 60 56 52 121
-7 60 -64 145 -176 262 l-74 78 89 91 c49 50 80 89 69 86 -106 -31 -277 -48
-289 -29 -3 5 17 30 44 57 27 27 47 52 45 55 -3 4 -53 11 -112 15 l-108 7
-120 88 c-187 137 -217 171 -229 265 -16 122 -23 128 -62 63 -14 -24 -36 -61
-48 -82 l-24 -40 -26 51 c-14 29 -29 54 -34 57 -4 2 -30 -22 -56 -55 -27 -33
-52 -57 -56 -52 -3 4 -19 40 -35 78 -16 39 -30 72 -32 74 -2 3 -40 -31 -84
-75 l-80 -79 -26 30 c-103 119 -143 158 -147 144z m-817 -1605 c4 3 8 -1 8 -9
0 -8 -4 -12 -8 -9 -4 2 -14 -3 -22 -11 -21 -20 -26 -19 -20 5 3 11 9 17 14 14
5 -3 9 3 10 13 0 11 3 13 6 5 2 -6 8 -10 12 -8z m1501 -94 c0 -5 -5 -10 -11
-10 -5 0 -7 5 -4 10 3 6 8 10 11 10 2 0 4 -4 4 -10z m60 3 c0 -5 -11 -8 -24
-8 -13 0 -22 3 -19 8 2 4 13 7 24 7 10 0 19 -3 19 -7z m73 -20 c-3 -8 -11 -10
-21 -4 -10 4 -24 11 -32 14 -8 2 1 4 21 3 24 -1 35 -5 32 -13z m-243 -83 c0
-5 -5 -10 -11 -10 -5 0 -7 5 -4 10 3 6 8 10 11 10 2 0 4 -4 4 -10z m-13 -57
c-3 -10 -5 -4 -5 12 0 17 2 24 5 18 2 -7 2 -21 0 -30z m90 -185 c-3 -7 -5 -2
-5 12 0 14 2 19 5 13 2 -7 2 -19 0 -25z m-172 -7 c3 -5 2 -12 -3 -15 -5 -3 -9
1 -9 9 0 17 3 19 12 6z m-8 -433 c-3 -7 -5 -2 -5 12 0 14 2 19 5 13 2 -7 2
-19 0 -25z m-840 -50 c-3 -7 -5 -2 -5 12 0 14 2 19 5 13 2 -7 2 -19 0 -25z
m253 -18 c6 -11 8 -20 6 -20 -3 0 -10 9 -16 20 -6 11 -8 20 -6 20 3 0 10 -9
16 -20z m335 -9 c-3 -6 -11 -11 -17 -11 -6 0 -6 6 2 15 14 17 26 13 15 -4z
m195 -109 c0 -9 -59 -74 -85 -93 -11 -8 1 8 28 35 26 27 47 53 47 58 0 4 2 8
5 8 3 0 5 -3 5 -8z m-14 -657 c-1 -8 -5 -17 -8 -21 -5 -4 -4 16 1 34 3 9 9 -1
7 -13z m-372 -273 c2 -4 -4 -8 -14 -8 -10 0 -16 4 -14 8 3 4 9 8 14 8 5 0 11
-4 14 -8z"/>
</g>
</svg>
